<svg width="859" height="385" viewBox="0 0 859 385" fill="none" xmlns="http://www.w3.org/2000/svg">
<mask id="mask0_402_16" style="mask-type:alpha" maskUnits="userSpaceOnUse" x="0" y="0" width="385" height="385">
<circle cx="192.5" cy="192.5" r="192.5" fill="black"/>
</mask>
<g mask="url(#mask0_402_16)">
<circle cx="192.5" cy="192.5" r="192.5" fill="#6D4EE9"/>
<path d="M192.5 244C130.9 119.2 10.5 139 -42 164.5L-51.5 232L27.5 364L222.5 451L340.5 444.5C368 461 418.7 447.9 401.5 263.5C384.3 79.1 353.667 117 340.5 159C316.833 239.333 254.1 368.8 192.5 244Z" fill="url(#paint0_linear_402_16)"/>
<path d="M187 221.584C125.4 96.7843 5 116.584 -47.5 142.084L-57 209.584L22 341.584L217 428.584L335 422.084C362.5 438.584 413.2 425.484 396 241.084C378.8 56.6843 348.167 94.5843 335 136.584C311.333 216.918 248.6 346.384 187 221.584Z" fill="url(#paint1_linear_402_16)"/>
<path d="M201 277.584C139.4 152.784 19 172.584 -33.5 198.084L-43 265.584L36 397.584L231 484.584L349 478.084C376.5 494.584 427.2 481.484 410 297.084C392.8 112.684 362.167 150.584 349 192.584C325.333 272.918 262.6 402.384 201 277.584Z" fill="url(#paint2_linear_402_16)"/>
<g filter="url(#filter0_f_402_16)">
<path d="M355.512 87.611C310.337 16.3964 223.373 7.55771 185.537 12.0402C177.74 16.2172 180.694 30.7227 254.894 55.3293C329.093 79.9359 343.858 205.629 341.965 265.4C365.304 235.81 400.687 158.826 355.512 87.611Z" fill="url(#paint3_linear_402_16)" fill-opacity="0.08"/>
</g>
<g filter="url(#filter1_f_402_16)">
<path d="M101.031 290.479C168.015 315.921 260.013 331.619 295.706 217.628C333.226 97.8008 163.52 25.4599 146.437 46.7123C34.2257 84.3008 112.59 108.384 162.005 172.528C84.5588 194.519 121.493 264.105 101.031 290.479Z" fill="url(#paint4_linear_402_16)" fill-opacity="0.08"/>
</g>
</g>
<path d="M527.45 178.15H512.9V244H491.6V178.15H482.15V160.9H491.6V156.7C491.6 146.5 494.5 139 500.3 134.2C506.1 129.4 514.85 127.15 526.55 127.45V145.15C521.45 145.05 517.9 145.9 515.9 147.7C513.9 149.5 512.9 152.75 512.9 157.45V160.9H527.45V178.15ZM557.559 173.8C560.259 169.4 563.759 165.95 568.059 163.45C572.459 160.95 577.459 159.7 583.059 159.7V181.75H577.509C570.909 181.75 565.909 183.3 562.509 186.4C559.209 189.5 557.559 194.9 557.559 202.6V244H536.559V160.9H557.559V173.8ZM669.954 200.65C669.954 203.65 669.754 206.35 669.354 208.75H608.604C609.104 214.75 611.204 219.45 614.904 222.85C618.604 226.25 623.154 227.95 628.554 227.95C636.354 227.95 641.904 224.6 645.204 217.9H667.854C665.454 225.9 660.854 232.5 654.054 237.7C647.254 242.8 638.904 245.35 629.004 245.35C621.004 245.35 613.804 243.6 607.404 240.1C601.104 236.5 596.154 231.45 592.554 224.95C589.054 218.45 587.304 210.95 587.304 202.45C587.304 193.85 589.054 186.3 592.554 179.8C596.054 173.3 600.954 168.3 607.254 164.8C613.554 161.3 620.804 159.55 629.004 159.55C636.904 159.55 643.954 161.25 650.154 164.65C656.454 168.05 661.304 172.9 664.704 179.2C668.204 185.4 669.954 192.55 669.954 200.65ZM648.204 194.65C648.104 189.25 646.154 184.95 642.354 181.75C638.554 178.45 633.904 176.8 628.404 176.8C623.204 176.8 618.804 178.4 615.204 181.6C611.704 184.7 609.554 189.05 608.754 194.65H648.204ZM760.282 160.9L708.832 283.3H686.482L704.482 241.9L671.182 160.9H694.732L716.182 218.95L737.932 160.9H760.282ZM761.702 202.15C761.702 193.75 763.352 186.3 766.652 179.8C770.052 173.3 774.602 168.3 780.302 164.8C786.102 161.3 792.552 159.55 799.652 159.55C805.852 159.55 811.252 160.8 815.852 163.3C820.552 165.8 824.302 168.95 827.102 172.75V160.9H848.252V244H827.102V231.85C824.402 235.75 820.652 239 815.852 241.6C811.152 244.1 805.702 245.35 799.502 245.35C792.502 245.35 786.102 243.55 780.302 239.95C774.602 236.35 770.052 231.3 766.652 224.8C763.352 218.2 761.702 210.65 761.702 202.15ZM827.102 202.45C827.102 197.35 826.102 193 824.102 189.4C822.102 185.7 819.402 182.9 816.002 181C812.602 179 808.952 178 805.052 178C801.152 178 797.552 178.95 794.252 180.85C790.952 182.75 788.252 185.55 786.152 189.25C784.152 192.85 783.152 197.15 783.152 202.15C783.152 207.15 784.152 211.55 786.152 215.35C788.252 219.05 790.952 221.9 794.252 223.9C797.652 225.9 801.252 226.9 805.052 226.9C808.952 226.9 812.602 225.95 816.002 224.05C819.402 222.05 822.102 219.25 824.102 215.65C826.102 211.95 827.102 207.55 827.102 202.45Z" fill="white"/>
<defs>
<filter id="filter0_f_402_16" x="161.595" y="-9.92615" width="236.716" height="296.326" filterUnits="userSpaceOnUse" color-interpolation-filters="sRGB">
<feFlood flood-opacity="0" result="BackgroundImageFix"/>
<feBlend mode="normal" in="SourceGraphic" in2="BackgroundImageFix" result="shape"/>
<feGaussianBlur stdDeviation="10.5" result="effect1_foregroundBlur_402_16"/>
</filter>
<filter id="filter1_f_402_16" x="53.0219" y="7.02246" width="284.083" height="337.665" filterUnits="userSpaceOnUse" color-interpolation-filters="sRGB">
<feFlood flood-opacity="0" result="BackgroundImageFix"/>
<feBlend mode="normal" in="SourceGraphic" in2="BackgroundImageFix" result="shape"/>
<feGaussianBlur stdDeviation="18" result="effect1_foregroundBlur_402_16"/>
</filter>
<linearGradient id="paint0_linear_402_16" x1="176.741" y1="124.416" x2="176.741" y2="451" gradientUnits="userSpaceOnUse">
<stop stop-color="#D9D9D9"/>
<stop offset="1" stop-color="#D9D9D9" stop-opacity="0"/>
</linearGradient>
<linearGradient id="paint1_linear_402_16" x1="171.241" y1="102" x2="171.241" y2="428.584" gradientUnits="userSpaceOnUse">
<stop stop-color="#D9D9D9"/>
<stop offset="1" stop-color="#D9D9D9" stop-opacity="0"/>
</linearGradient>
<linearGradient id="paint2_linear_402_16" x1="185.241" y1="158" x2="185.241" y2="484.584" gradientUnits="userSpaceOnUse">
<stop stop-color="#D9D9D9"/>
<stop offset="1" stop-color="#D9D9D9" stop-opacity="0"/>
</linearGradient>
<linearGradient id="paint3_linear_402_16" x1="298.151" y1="28.8941" x2="243.461" y2="239.865" gradientUnits="userSpaceOnUse">
<stop stop-color="white"/>
<stop offset="1" stop-color="white" stop-opacity="0"/>
</linearGradient>
<linearGradient id="paint4_linear_402_16" x1="240.855" y1="73.0625" x2="174.119" y2="312.187" gradientUnits="userSpaceOnUse">
<stop stop-color="white"/>
<stop offset="1" stop-color="white" stop-opacity="0"/>
</linearGradient>
</defs>
</svg>
