<svg width="385" height="157" viewBox="0 0 385 157" fill="none" xmlns="http://www.w3.org/2000/svg">
<path d="M45.45 51.15H30.9V117H9.6V51.15H0.15V33.9H9.6V29.7C9.6 19.5 12.5 12 18.3 7.19999C24.1 2.39999 32.85 0.149996 44.55 0.449998V18.15C39.45 18.05 35.9 18.9 33.9 20.7C31.9 22.5 30.9 25.75 30.9 30.45V33.9H45.45V51.15ZM80.059 46.8C82.759 42.4 86.259 38.95 90.559 36.45C94.959 33.95 99.959 32.7 105.559 32.7V54.75H100.009C93.409 54.75 88.409 56.3 85.009 59.4C81.709 62.5 80.059 67.9 80.059 75.6V117H59.059V33.9H80.059V46.8ZM196.954 73.65C196.954 76.65 196.754 79.35 196.354 81.75H135.604C136.104 87.75 138.204 92.45 141.904 95.85C145.604 99.25 150.154 100.95 155.554 100.95C163.354 100.95 168.904 97.6 172.204 90.9H194.854C192.454 98.9 187.854 105.5 181.054 110.7C174.254 115.8 165.904 118.35 156.004 118.35C148.004 118.35 140.804 116.6 134.404 113.1C128.104 109.5 123.154 104.45 119.554 97.95C116.054 91.45 114.304 83.95 114.304 75.45C114.304 66.85 116.054 59.3 119.554 52.8C123.054 46.3 127.954 41.3 134.254 37.8C140.554 34.3 147.804 32.55 156.004 32.55C163.904 32.55 170.954 34.25 177.154 37.65C183.454 41.05 188.304 45.9 191.704 52.2C195.204 58.4 196.954 65.55 196.954 73.65ZM175.204 67.65C175.104 62.25 173.154 57.95 169.354 54.75C165.554 51.45 160.904 49.8 155.404 49.8C150.204 49.8 145.804 51.4 142.204 54.6C138.704 57.7 136.554 62.05 135.754 67.65H175.204ZM291.782 33.9L240.332 156.3H217.982L235.982 114.9L202.682 33.9H226.232L247.682 91.95L269.432 33.9H291.782ZM297.702 75.15C297.702 66.75 299.352 59.3 302.652 52.8C306.052 46.3 310.602 41.3 316.302 37.8C322.102 34.3 328.552 32.55 335.652 32.55C341.852 32.55 347.252 33.8 351.852 36.3C356.552 38.8 360.302 41.95 363.102 45.75V33.9H384.252V117H363.102V104.85C360.402 108.75 356.652 112 351.852 114.6C347.152 117.1 341.702 118.35 335.502 118.35C328.502 118.35 322.102 116.55 316.302 112.95C310.602 109.35 306.052 104.3 302.652 97.8C299.352 91.2 297.702 83.65 297.702 75.15ZM363.102 75.45C363.102 70.35 362.102 66 360.102 62.4C358.102 58.7 355.402 55.9 352.002 54C348.602 52 344.952 51 341.052 51C337.152 51 333.552 51.95 330.252 53.85C326.952 55.75 324.252 58.55 322.152 62.25C320.152 65.85 319.152 70.15 319.152 75.15C319.152 80.15 320.152 84.55 322.152 88.35C324.252 92.05 326.952 94.9 330.252 96.9C333.652 98.9 337.252 99.9 341.052 99.9C344.952 99.9 348.602 98.95 352.002 97.05C355.402 95.05 358.102 92.25 360.102 88.65C362.102 84.95 363.102 80.55 363.102 75.45Z" fill="white"/>
</svg>
